<?xml version="1.0" encoding="utf-8"?>
<!-- Generator: Adobe Illustrator 27.0.0, SVG Export Plug-In . SVG Version: 6.00 Build 0)  -->
<svg version="1.1" id="Layer_1" xmlns="http://www.w3.org/2000/svg" xmlns:xlink="http://www.w3.org/1999/xlink" x="0px" y="0px"
	 viewBox="0 0 446 194" style="enable-background:new 0 0 446 194;" xml:space="preserve">
<style type="text/css">
	.st0{fill:none;}
	.st1{fill:#3FA9F5;stroke:#3FA9F5;stroke-width:0.8;stroke-miterlimit:10;}
	.st2{font-family:'MyriadPro-Regular';}
	.st3{font-size:12px;}
	.st4{fill:none;stroke:#000000;stroke-miterlimit:10;}
	.st5{fill:#3FA9F5;stroke:#000000;stroke-miterlimit:10;}
	.st6{fill:#3FA9F5;stroke:#000000;stroke-width:0.8;stroke-miterlimit:10;}
	.st7{stroke:#000000;stroke-width:0.8;stroke-miterlimit:10;}
	.st8{fill:none;stroke:#3FA9F5;stroke-miterlimit:10;}
</style>
<g>
	<g>
		<rect x="19.33" y="119.69" class="st0" width="61.29" height="34"/>
		<text transform="matrix(1 0 0 1 22.7289 133.7481)"><tspan x="0" y="0" class="st1 st2 st3">GUIDANCE </tspan><tspan x="4.62" y="14.4" class="st1 st2 st3">MODULE</tspan></text>
	</g>
	<rect x="14.05" y="118.69" class="st4" width="71.84" height="36"/>
</g>
<g>
	<rect x="375.84" y="119.69" class="st0" width="47" height="34"/>
	<text transform="matrix(1 0 0 1 376.2051 133.7481)"><tspan x="0" y="0" class="st1 st2 st3">SENSORS </tspan><tspan x="0.52" y="14.4" class="st1 st2 st3">MODULE</tspan></text>
	<rect x="363.42" y="118.69" class="st4" width="71.84" height="36"/>
</g>
<g>
	<rect x="143.61" y="119.69" class="st0" width="51.24" height="34"/>
	<text transform="matrix(1 0 0 1 144.4891 133.7481)"><tspan x="0" y="0" class="st1 st2 st3">CONTROL </tspan><tspan x="2.12" y="14.4" class="st1 st2 st3">MODULE</tspan></text>
	<rect x="133.31" y="118.69" class="st4" width="71.84" height="36"/>
</g>
<g>
	<rect x="250.34" y="118.69" class="st5" width="71.84" height="36"/>
	<g>
		<rect x="255.62" y="119.69" class="st0" width="61.29" height="34"/>
		<text transform="matrix(1 0 0 1 275.8827 140.9478)" class="st6 st2 st3">CAR</text>
	</g>
</g>
<g>
	<rect x="132.23" y="27.38" class="st0" width="72" height="34"/>
	<text transform="matrix(1 0 0 1 136.127 48.6436)" class="st7 st2 st3">SIMULATION</text>
	<rect x="132.31" y="26.38" class="st8" width="71.84" height="36"/>
</g>
<g>
	<g>
		<path d="M87.41,139.13c7.38,0.01,14.77,0.01,22.15,0.02c7.09,0.01,14.42,0.52,21.4-0.97c1.13-0.24,1.41-1.74,0.66-2.51
			c-2.65-2.72-5.9-4.71-9.51-5.88c-1.6-0.52-2.68,1.97-1.16,2.74c1.44,0.73,2.88,1.47,4.31,2.22c0.72,0.37,1.43,0.75,2.15,1.13
			c0.43,0.23,0.86,0.45,1.28,0.68c0.4,0.22,0.78,0.72,0.62-0.06c0.05-0.48-0.04-0.57-0.26-0.28c-0.19,0.16-0.37,0.33-0.56,0.49
			c-0.31,0.27-0.62,0.55-0.93,0.82c-0.62,0.55-1.24,1.1-1.87,1.65c-1.31,1.15-2.61,2.31-3.92,3.46c-1.45,1.28,0.68,3.4,2.12,2.12
			c1.62-1.43,3.24-2.85,4.85-4.28c1.17-1.04,3.76-2.51,3.43-4.37c-0.31-1.74-2.55-2.45-3.9-3.17c-1.93-1.02-3.87-2.02-5.81-3.01
			c-0.39,0.91-0.77,1.83-1.16,2.74c3.13,1.01,5.9,2.75,8.19,5.1c0.22-0.84,0.44-1.67,0.66-2.51c-6.85,1.46-14.15,0.87-21.1,0.86
			c-7.22-0.01-14.44-0.01-21.66-0.02C85.48,136.12,85.48,139.12,87.41,139.13L87.41,139.13z"/>
	</g>
</g>
<g>
	<g>
		<path d="M206.65,138.64c12.72,0.01,25.45,0.02,38.17,0.03c1.54,0,1.98-2,0.76-2.8c-2.72-1.77-5.45-3.53-8.17-5.3
			c-0.5,0.86-1.01,1.73-1.51,2.59c1.82,1.02,3.65,2.05,5.47,3.07c0.56,0.32,1.12,0.63,1.68,0.95c0.14,0.08,0.28,0.16,0.42,0.24
			c0.41,0.4,0.56,0.32,0.45-0.24c-0.63,0.22-1.36,0.73-1.92,1.09c-2.79,1.76-4.79,4.55-5.61,7.74c-0.48,1.87,2.41,2.67,2.89,0.8
			c0.49-1.92,1.48-3.61,2.94-4.95c1.29-1.19,3.42-1.66,4.36-3.2c1.3-2.14-0.82-3.4-2.43-4.3c-2.24-1.26-4.49-2.52-6.73-3.78
			c-1.69-0.95-3.13,1.54-1.51,2.59c2.72,1.77,5.45,3.53,8.17,5.3c0.25-0.93,0.5-1.86,0.76-2.8c-12.72-0.01-25.45-0.02-38.17-0.03
			C204.72,135.63,204.72,138.63,206.65,138.64L206.65,138.64z"/>
	</g>
</g>
<g>
	<g>
		<path d="M323.94,136.67c11.94,0.08,23.88,0.05,35.83-0.1c1.18-0.01,2.14-1.72,1.06-2.56c-2.68-2.11-5.36-4.21-8.04-6.32
			c-0.61,0.79-1.21,1.57-1.82,2.36c1.64,1.02,3.28,2.03,4.92,3.05c0.41,0.25,0.82,0.51,1.23,0.76c0.04,0.03,1.06,0.74,1.1,0.73
			c0.17-0.71,0.1-0.92-0.2-0.65c-0.16,0.1-0.31,0.21-0.46,0.32c-0.3,0.22-0.6,0.46-0.88,0.7c-2.27,1.95-3.82,4.72-4.39,7.64
			c-0.37,1.89,2.52,2.69,2.89,0.8c0.33-1.71,0.99-3.32,2.07-4.71c0.53-0.68,1.16-1.32,1.84-1.85c0.65-0.51,1.44-0.86,1.81-1.65
			c0.97-2.05-1.23-3.29-2.67-4.18c-1.91-1.18-3.82-2.37-5.73-3.55c-1.41-0.88-3.18,1.29-1.82,2.36c2.68,2.11,5.36,4.21,8.04,6.32
			c0.35-0.85,0.71-1.71,1.06-2.56c-11.94,0.14-23.88,0.17-35.83,0.1C322.01,133.66,322.01,136.66,323.94,136.67L323.94,136.67z"/>
	</g>
</g>
<g>
	<g>
		<path d="M399.19,155.83c-0.22,3.94-0.09,7.9,0.4,11.82c0.1,0.8,0.62,1.5,1.5,1.5c0.73,0,1.6-0.69,1.5-1.5
			c-0.49-3.92-0.62-7.87-0.4-11.82c0.05-0.81-0.72-1.5-1.5-1.5C399.84,154.33,399.23,155.01,399.19,155.83L399.19,155.83z"/>
	</g>
</g>
<g>
	<g>
		<path d="M401.49,166.81c-30.37-1.42-60.81-1.4-91.18,0.07c-30.39,1.47-60.6,5.16-90.97,6.84c-17.11,0.94-34.28,1.13-51.37-0.36
			c-1.92-0.17-1.91,2.83,0,3c30.31,2.64,60.71-0.02,90.92-2.7c30.31-2.7,60.62-4.66,91.06-4.87c17.19-0.12,34.37,0.23,51.54,1.03
			C403.42,169.9,403.42,166.9,401.49,166.81L401.49,166.81z"/>
	</g>
</g>
<g>
	<g>
		<path d="M168.85,173.95c-0.01-4.42-0.02-8.85-0.03-13.27c0-1.49-2.04-2.04-2.8-0.76c-0.21,0.36-0.47,0.6-0.83,0.84
			c-0.49,0.33-1.02,0.62-1.53,0.93c-1.15,0.72-2.1,1.59-2.53,2.91c-0.45,1.38,1.54,2.61,2.51,1.46c1.5-1.78,3-3.56,4.49-5.34
			c-0.79-0.1-1.57-0.2-2.36-0.3c1.44,2.29,3.51,4.15,6,5.24c0.74,0.32,1.61,0.22,2.05-0.54c0.37-0.64,0.21-1.73-0.54-2.05
			c-2.03-0.89-3.74-2.28-4.92-4.16c-0.47-0.76-1.71-1.07-2.36-0.3c-1.5,1.78-3,3.56-4.49,5.34c0.84,0.49,1.67,0.97,2.51,1.46
			c0.06-0.19,0.33-0.54,0.53-0.7c0.41-0.33,0.9-0.58,1.35-0.85c1.06-0.63,2.07-1.33,2.7-2.41c-0.93-0.25-1.86-0.5-2.8-0.76
			c0.01,4.42,0.02,8.85,0.03,13.27C165.86,175.88,168.86,175.88,168.85,173.95L168.85,173.95z"/>
	</g>
</g>
<g>
	<g>
		<path d="M48.6,58.35c-0.09,17.46-0.06,34.93,0.11,52.39c0.75-0.43,1.5-0.86,2.26-1.3c-2.31-1.58-4.39-3.51-6.09-5.74
			c-0.79,0.61-1.57,1.21-2.36,1.82c2.61,2.41,5.21,4.82,7.82,7.23c0.8,0.74,2.22,0.47,2.51-0.66c0.83-3.3,2.85-6.09,5.76-7.87
			c1.64-1.01,0.14-3.6-1.51-2.59c-3.55,2.18-6.12,5.63-7.14,9.67c0.84-0.22,1.67-0.44,2.51-0.66c-2.61-2.41-5.21-4.82-7.82-7.23
			c-1.18-1.09-3.44,0.4-2.36,1.82c2.03,2.66,4.39,4.93,7.16,6.81c0.95,0.65,2.27-0.21,2.26-1.3c-0.17-17.46-0.21-34.93-0.11-52.39
			C51.61,56.42,48.61,56.41,48.6,58.35L48.6,58.35z"/>
	</g>
</g>
<rect x="22.46" y="27.02" class="st0" width="53.71" height="30"/>
<text transform="matrix(1 0 0 1 33.2104 35.5425)"><tspan x="0" y="0" class="st2 st3">start &amp; </tspan><tspan x="-8.32" y="14.4" class="st2 st3">end point</tspan></text>
<text transform="matrix(1 0 0 1 95.9043 128.5771)" class="st2 st3">path</text>
<text transform="matrix(1 0 0 1 200.0786 77.3159)"><tspan x="0" y="0" class="st2 st3">position,</tspan><tspan x="-3.11" y="14.4" class="st2 st3">attitude &amp;</tspan><tspan x="2.24" y="28.8" class="st2 st3">velocity</tspan></text>
<g>
	<g>
		<path d="M149.71,68.02c0,9.06,0,18.11,0,27.17c0,4.49,0,8.97,0,13.46c0,1.08,0.01,2.16,0,3.24c0,0.27,0,0.54-0.01,0.8
			c-0.15,0.44,0.09,0.4,0.71-0.11c0-0.05-0.79-0.79-0.82-0.83c-1.45-1.63-2.87-3.29-4.31-4.93c-0.71,0.71-1.41,1.41-2.12,2.12
			c1.29,1.44,2.58,2.87,3.87,4.31c0.88,0.98,2.03,2.96,3.56,2.82c1.51-0.14,2.82-2.13,3.81-3.13c1.38-1.39,2.76-2.79,4.14-4.18
			c1.36-1.37-0.76-3.5-2.12-2.12c-1.15,1.16-2.3,2.32-3.45,3.49c-0.52,0.52-1.03,1.05-1.55,1.57c-0.29,0.29-0.57,0.58-0.86,0.87
			c-0.11,0.12-0.23,0.23-0.34,0.35c-0.39,0.38-0.47,0.46-0.21,0.24c0.39,0.05,0.77,0.1,1.16,0.15c-0.41-0.19-0.87-0.92-1.19-1.28
			c-0.54-0.6-1.07-1.2-1.61-1.79c-1.02-1.14-2.04-2.27-3.06-3.41c-1.3-1.44-3.38,0.68-2.12,2.12c1.6,1.83,3.11,3.87,4.86,5.54
			c1.38,1.31,3.6,1.49,4.42-0.52c0.39-0.95,0.27-2.07,0.27-3.08c0-1.33,0-2.66,0-3.99c0-2.58,0-5.15,0-7.73c0-10.39,0-20.77,0-31.16
			C152.71,66.09,149.71,66.09,149.71,68.02L149.71,68.02z"/>
	</g>
</g>
<g>
	<g>
		<path d="M186.07,114.48c-0.21-15.34-0.43-30.68-0.64-46.03c-0.02-1.25-1.66-2.05-2.56-1.06c-2.03,2.23-3.92,4.59-5.68,7.04
			c0.86,0.5,1.73,1.01,2.59,1.51c1.97-2.88,4.25-5.49,6.82-7.86c-0.79-0.1-1.57-0.2-2.36-0.3c1.87,3.22,4.1,6.22,6.64,8.95
			c1.32,1.42,3.43-0.71,2.12-2.12c-2.37-2.55-4.42-5.33-6.17-8.34c-0.5-0.86-1.65-0.95-2.36-0.3c-2.75,2.54-5.17,5.38-7.29,8.47
			c-1.1,1.61,1.48,3.07,2.59,1.51c1.61-2.25,3.35-4.39,5.21-6.44c-0.85-0.35-1.71-0.71-2.56-1.06c0.21,15.34,0.43,30.68,0.64,46.03
			C183.1,116.41,186.1,116.41,186.07,114.48L186.07,114.48z"/>
	</g>
</g>
</svg>
